<svg xmlns="http://www.w3.org/2000/svg" width="210" height="110" viewBox="0 0 210 110" fill="none"><path d="M131.646 32.4431C132.587 32.4848 133.3 31.7772 133.36 30.7392C133.419 29.7558 132.818 29.03 131.921 29.0009C131.006 28.9701 130.269 29.7086 130.201 30.7247C130.135 31.7118 130.713 32.4014 131.646 32.4431Z" fill="black"></path><path d="M53.2465 34.8818C54.0367 34.8873 54.8104 34.078 54.8471 33.207C54.8819 32.3814 54.2585 31.71 53.45 31.7009C52.6194 31.6919 51.9649 32.3887 51.9337 33.3159C51.9007 34.2195 52.4526 34.8764 53.2465 34.8818Z" fill="black"></path><path d="M170.845 53.2612C170.57 53.0217 170.367 53.292 170.196 53.4898C170.077 53.6259 169.978 53.7801 169.87 53.9253C168.7 55.1646 167.53 56.4039 166.361 57.6433C165.53 58.3582 164.701 59.0749 163.871 59.7898C163.61 59.9241 163.352 60.0566 163.092 60.1908C160.873 61.3267 158.942 59.7844 159.234 57.6705C159.498 55.758 159.54 53.8164 159.68 51.8876C159.923 51.6099 160.156 51.3214 160.415 51.0601C161.495 49.9624 162.602 48.8918 163.664 47.7759C165.141 46.2244 166.326 44.4752 167.127 42.4865C167.455 41.67 167.706 40.8389 167.33 39.9625C167.296 39.5089 167.011 39.1841 166.733 38.8665C165.275 37.2062 163.154 36.9359 161.08 38.3022C157.472 40.681 155.351 44.1522 153.981 48.1351C153.134 50.2527 152.799 52.4682 152.789 54.7291C152.786 55.464 152.564 56.0428 152.113 56.6126C150.815 58.2511 149.223 59.5739 147.592 60.8586C146.836 61.2505 146.162 61.7967 145.313 62.0126C144.249 62.283 143.778 61.9292 143.765 60.8513C143.754 59.9804 144.018 59.1783 144.4 58.409C144.955 57.2876 145.645 56.2424 146.317 55.1882C148.316 52.06 150.171 48.8664 150.802 45.1375C151.017 43.8692 151.09 42.6026 150.683 41.3579C150.334 40.2946 149.713 39.8681 148.584 39.879C147.192 39.8935 145.982 40.4379 144.823 41.1365C143.725 41.797 142.671 42.5355 141.448 42.9728C141.171 42.9547 141.074 42.8766 141.25 42.5936C141.514 42.1708 141.756 41.7335 141.965 41.2817C142.236 40.6937 142.242 40.1185 141.728 39.6304C140.993 38.7921 140.188 38.6651 139.128 39.2222C137.236 40.1113 136.745 42.1236 137.999 43.8474C138.465 44.3301 138.338 44.7674 137.995 45.2918C136.42 47.7033 134.884 50.1402 133.335 52.568C131.523 55.1084 129.895 57.7902 127.528 59.8987C127.107 60.1437 126.927 60.0384 127.053 59.5576C127.262 58.7628 127.457 57.9626 127.71 57.1824C129.2 52.6098 130.412 47.9682 131.08 43.2032C131.267 41.8696 131.542 40.5323 131.325 39.1714C131.228 38.5544 130.972 38.0427 130.317 37.8667C129.666 37.6925 129.175 38.0082 128.764 38.471C128.317 38.9736 128.036 39.5796 127.708 40.1566C126.331 41.0567 125.211 42.247 124.014 43.3502C123.794 43.5407 123.575 43.7313 123.355 43.9218C122.928 44.1922 122.541 44.5061 122.235 44.9089C121.887 45.1883 121.559 45.4968 121.185 45.7381C120.6 46.1174 120.196 46.7724 119.428 46.8704C119.314 46.0593 119.214 45.2446 119.085 44.4353C118.882 43.1542 118.686 41.8659 118 40.7264C116.823 38.7685 114.731 38.382 112.872 39.7647C112.364 40.0133 112.014 40.4198 111.724 40.8879C111.467 41.0131 111.367 41.2726 111.211 41.4831C109.592 43.675 108.305 46.0557 107.117 48.4944C107.001 48.7321 106.955 49.0261 106.68 49.1876C106.66 49.0097 106.644 48.8537 106.627 48.6976C107.014 46.0666 107.15 43.421 107.052 40.7681C107.019 39.8881 107.115 38.9518 106.502 38.1788C106.092 37.649 105.663 37.6453 105.215 38.1353C104.88 38.422 104.729 38.7958 104.693 39.224C104.526 39.4272 104.491 39.6958 104.273 39.8863C101.143 42.6389 98.1896 45.5639 95.5054 48.7466C95.2598 49.0388 95.1387 49.0097 95.0471 48.8773C95.0031 48.7811 94.9572 48.6867 94.9022 48.5924C94.3797 46.2734 93.7783 43.9762 93.023 41.7208C92.9753 41.3579 93.1385 41.0657 93.3145 40.7627C93.903 39.7502 94.4347 38.7087 94.4732 37.5074C94.5007 36.6764 94.1854 36.0213 93.3951 35.6439C92.5628 35.1848 91.9027 35.2465 91.1547 35.9288C90.1096 36.8851 89.4606 38.0899 89.0554 39.4272C88.509 41.2236 88.5127 43.0726 88.564 44.9234C88.6135 45.7799 88.2542 46.4984 87.8288 47.2188C85.9605 50.3815 83.8576 53.3809 81.5016 56.2061C80.9589 56.8557 80.4217 57.5108 79.8808 58.1622C79.5178 58.4035 79.2263 58.7102 79.021 59.0949C78.2399 59.9169 77.4589 60.7388 76.6778 61.559C76.4028 61.6896 76.2745 61.6026 76.3515 61.3086C77.0904 58.516 77.8457 55.7271 78.5791 52.9346C79.5197 49.3545 80.2677 45.7454 80.1412 42.0165C80.1009 40.8153 79.9487 39.6304 79.3345 38.5599C78.4636 37.0447 76.9437 36.5185 75.2862 37.1409C74.7069 37.2171 74.2247 37.482 73.803 37.8722C72.8716 38.4201 72.3527 39.3238 71.7844 40.1839C71.2618 40.8153 70.7852 41.4776 70.4313 42.2198C69.0324 44.2466 67.8828 46.4131 66.7204 48.5761C66.6049 48.792 66.6232 49.1767 66.2052 49.1386C66.5077 47.4129 66.7259 45.6783 66.6837 43.9254C66.6507 42.5137 66.5352 41.102 65.4957 39.9843C64.6523 39.077 63.7044 39.0589 62.7785 39.9026C61.5849 40.7663 60.7856 41.973 59.9275 43.127C59.009 44.3355 58.1912 45.6093 57.3992 46.9012C56.2038 48.5361 55.0341 50.1892 53.9597 51.9057C53.4005 52.7894 52.8413 53.6731 52.2821 54.5586C51.27 56.1227 50.2561 57.685 49.2441 59.2491C48.705 59.8715 48.1697 60.4939 47.6288 61.1144C47.3263 61.461 47.3006 61.2324 47.3024 60.9566C47.5848 60.1564 47.8873 59.3634 48.1458 58.556C50.0178 52.7132 50.7713 46.6381 51.9429 40.6502C52.0437 40.1331 52.0272 39.5978 51.4552 39.3474C50.8447 39.0806 50.434 39.4617 50.0948 39.9026C49.6034 40.5395 49.2496 41.2563 48.9104 41.9784C48.078 43.7585 47.2548 45.5422 46.4279 47.3258C46.2666 47.5327 46.1052 47.7414 45.942 47.9482C43.6924 50.7789 41.9891 54.1376 38.3534 55.6309C38.1022 55.7344 37.9042 55.9703 38.0491 56.2769C38.1719 56.54 38.4176 56.6507 38.7164 56.609C39.1748 56.5455 39.5892 56.3622 39.9999 56.1662C41.6536 55.3751 42.8619 54.0868 43.9711 52.6878C44.0994 52.7096 44.3066 52.5589 44.3158 52.842C43.7621 54.593 43.069 56.3096 42.7408 58.1168C42.4548 59.6882 42.4402 61.2905 43.0984 62.802C43.5274 63.7854 44.1783 64.6038 45.3443 64.7417C46.5471 64.8832 47.2603 64.1284 47.8653 63.2374C48.639 62.459 49.2166 61.5481 49.7263 60.5882C50.1553 60.0566 50.5385 59.4995 50.7255 58.8336C50.7841 58.7229 50.8428 58.6122 50.9015 58.5033C51.1508 58.4017 51.2003 58.1677 51.2682 57.9499C51.5652 57.6142 51.7907 57.2386 51.9044 56.8049C52.2546 56.1771 52.6066 55.5493 52.9568 54.9233C53.7598 54.1231 54.0165 52.9999 54.66 52.1071C55.1991 51.6608 55.4686 51.022 55.8353 50.4577C56.5632 49.3363 57.4707 48.3347 58.0629 47.1244C58.8385 45.8815 59.9165 44.849 60.5986 43.5426C60.8167 43.2831 61.0349 43.0236 61.2531 42.7641C61.7848 42.4466 62.1661 41.9621 62.6117 41.5502C62.6538 41.6536 62.6942 41.7571 62.7363 41.8605C62.223 43.3538 61.7261 44.8545 61.1908 46.3424C59.6763 50.5484 58.5763 54.8543 58.0006 59.2872C57.8209 60.6681 57.7696 62.038 58.3159 63.359C58.6496 64.1683 59.207 64.758 60.1292 64.8596C61.0294 64.9594 61.6546 64.4895 62.146 63.7981C62.8629 62.7911 63.312 61.6661 63.7044 60.5011C64.6193 57.7793 65.14 54.9632 65.789 52.1761C65.8789 52.02 65.9889 51.8694 66.0567 51.7043C67.2448 48.8609 68.7097 46.1591 70.3708 43.5607C70.567 43.254 70.8567 42.9928 70.908 42.6044C71.3058 41.846 72.1107 41.3905 72.4444 40.5831C72.9706 39.9625 73.6802 39.5669 74.3145 39.0788C74.7197 38.9917 75.1231 38.8937 75.5448 38.9572C75.983 39.6504 75.5741 40.3018 75.3981 40.9351C74.4667 44.2829 73.3886 47.5908 72.6351 50.9876C71.9806 53.9434 71.6322 56.9011 72.4279 59.886C72.7451 61.0727 73.132 62.2322 74.0432 63.1268C74.7876 63.858 75.4549 63.9651 76.3533 63.5223C76.995 63.31 77.3855 62.7965 77.7669 62.3011C78.7625 61.0092 79.725 59.69 80.7022 58.3836C80.9571 58.3636 81.0304 58.135 81.1569 57.9808C82.4312 56.4184 83.6706 54.8326 84.8348 53.1868C86.1035 51.3958 87.3778 49.6103 88.6759 47.7867C88.7712 47.99 88.8445 48.1496 88.9197 48.3075C89.1654 50.0277 89.4862 51.7351 89.8603 53.4317C90.0546 54.3263 89.6604 54.9614 89.0407 55.591C88.0708 56.5745 87.1633 57.6396 86.6059 58.9152C85.7259 60.9275 85.3317 62.9925 86.2704 65.1137C86.8644 66.411 88.025 66.9391 89.5211 66.5381C91.1748 66.0935 92.3317 64.983 93.1275 63.5568C94.343 61.3775 95.0141 59.0078 95.2799 56.5309C95.6429 54.8888 95.6228 53.2285 95.4944 51.5682C95.4578 51.1001 95.4981 50.7208 95.819 50.3234C98.2464 47.3204 101.096 44.7166 103.813 41.9875C103.827 41.9712 103.897 42.0093 103.937 42.0202C103.93 42.2597 103.921 42.4956 103.914 42.7315C103.875 42.8294 103.822 42.9256 103.802 43.0272C102.001 52.1126 99.8085 61.1163 98.0667 70.2125C97.5185 73.0776 96.8493 75.9264 96.6238 78.8442C96.5395 79.9365 97.029 80.7059 97.8449 80.9327C98.7195 81.1759 99.5353 80.7549 100.045 79.7533C100.54 78.7789 100.918 77.7537 101.202 76.703C103.316 68.8516 104.858 60.8822 106.189 52.871C106.244 52.7531 106.303 52.637 106.35 52.5172C107.923 48.5706 109.526 44.6403 112.681 41.5919C112.852 41.494 113.024 41.396 113.194 41.298C113.884 41.2653 114.243 41.552 114.245 42.2724C114.254 44.7383 114.271 47.2025 114.309 49.6684C114.322 50.4359 114.054 50.9948 113.473 51.5356C111.984 52.9182 110.71 54.4969 109.671 56.2406C108.805 57.6904 108.336 59.26 108.591 60.9566C108.857 62.733 110.331 63.6929 112.105 63.3118C113.16 63.085 114.038 62.5352 114.81 61.8185C117.576 59.2473 118.911 55.9902 119.406 52.3376C119.762 51.2579 119.687 50.1384 119.668 49.0315C119.659 48.5071 119.793 48.1478 120.191 47.7904C121.102 46.972 121.962 46.0992 122.844 45.2482C123.201 44.9379 123.568 44.6367 123.916 44.3174C124.774 43.5317 125.627 42.7387 126.48 41.9458C126.674 41.7643 126.826 41.6863 126.846 42.0565C125.572 45.045 124.567 48.1242 123.806 51.2761C123.326 53.2612 122.93 55.2735 122.921 57.3293C122.915 58.7011 123.152 60.033 123.966 61.1888C124.844 62.4354 126.058 62.7239 127.294 62.0163C128.669 61.2741 129.492 60.0275 130.308 58.7773C130.489 58.5541 130.682 58.3382 130.849 58.1041C132.031 56.462 132.942 54.6565 134.022 52.9509C134.325 52.8638 134.365 52.5644 134.492 52.3485C135.839 50.0277 137.255 47.7468 138.811 45.5567C138.974 45.3281 139.072 45.016 139.44 45.016C139.935 45.2954 140.478 45.2845 141.006 45.2047C141.976 45.0577 142.849 44.6476 143.659 44.1178C144.642 43.4754 145.602 42.7968 146.596 42.1708C146.924 41.9639 147.28 41.7008 147.788 41.8224C147.615 42.1055 147.485 42.3359 147.339 42.5555C145.447 45.3861 143.536 48.2041 141.664 51.0474C140.559 52.7259 139.765 54.5495 139.282 56.5001C138.8 58.4543 138.753 60.3959 139.607 62.2685C140.865 65.0247 143.664 65.8177 146.206 64.152C147.216 63.4897 148.078 62.6568 148.884 61.7677C150.406 60.5646 151.53 58.9896 152.85 57.5144C152.978 57.8156 153.068 58.0243 153.156 58.2348C153.772 61.0328 155.684 62.5679 158.326 63.3264C160.871 64.0576 162.939 63.1739 164.676 61.3267C166.082 60.0892 167.169 58.5741 168.363 57.1497C169.349 56.2388 170.071 55.1392 170.686 53.9616C170.985 53.7656 171.133 53.5134 170.845 53.2612ZM160.655 47.3549C160.934 46.865 161.023 46.3115 161.188 45.7835C161.705 44.1341 162.336 42.5446 163.55 41.249C164.294 40.4542 164.863 40.4161 165.658 41.1292C165.675 41.151 165.691 41.1746 165.704 41.1982C165.495 41.7897 165.426 42.4266 165.121 42.9928C163.909 45.2537 162.243 47.1299 160.257 48.7412C160.332 48.2621 160.369 47.774 160.655 47.3549ZM89.0811 63.1086C88.8922 63.4534 88.729 63.8979 88.2908 63.927C87.8288 63.9578 87.816 63.4461 87.6125 63.163C87.7133 62.9145 87.629 62.6423 87.6051 62.381C87.4346 60.5628 88.4669 58.1368 89.8383 57.2132C89.8804 57.8392 89.7979 58.4416 89.8126 59.0423C89.8218 59.4396 89.6934 59.8552 89.8639 60.2344C89.5981 61.1943 89.5706 62.214 89.0811 63.1086ZM91.9321 39.3183C91.8752 39.2367 91.8752 39.1296 91.8789 39.0298C91.9101 38.3076 92.0769 37.5927 92.3703 36.9304L92.3868 36.9649C92.4821 36.6111 93.0468 36.5911 93.2796 36.8742C93.5143 37.1572 93.4887 37.5709 93.3841 37.9211C93.2411 38.402 92.9753 38.8484 92.6159 39.2022C92.4289 39.3873 92.0824 39.5361 91.9321 39.3183ZM111.838 59.0677C111.469 59.3979 110.906 59.69 110.507 59.3979C110.153 59.1384 110.195 58.6031 110.329 58.1876C110.567 57.4455 112.716 53.6967 113.774 54.4751C114.887 55.2934 112.472 58.5015 111.838 59.0677ZM140.313 40.9369C140.056 41.3343 139.842 41.7625 139.528 42.1218C139.341 41.3179 139.741 40.8008 140.386 40.4016C140.485 40.5649 140.439 40.7409 140.313 40.9369Z" fill="black"></path></svg>