<svg xmlns="http://www.w3.org/2000/svg" width="210" height="110" viewBox="0 0 210 110" fill="none"><path fill-rule="evenodd" clip-rule="evenodd" d="M96.8747 50.4655L101.197 40.7127H103.349L102.224 38.192H100.225L91.6058 57.5084H93.7954L96.0378 52.439H106.331L108.546 57.5084H110.842L107.699 50.4655H96.8747Z" fill="black"></path><path fill-rule="evenodd" clip-rule="evenodd" d="M33.5368 55.8365C29.3765 55.8365 26.2158 52.357 26.2158 47.9178V47.8632C26.2158 43.4515 29.3494 39.9996 33.5368 39.9996C36.1033 39.9996 37.886 41.0959 39.48 42.6298L40.9387 41.0404C39.0479 39.2328 36.9944 38 33.5635 38C27.9981 38 24 42.4932 24 47.9183V47.9728C24 53.4803 28.0257 57.837 33.4826 57.837C36.9135 57.837 39.0746 56.4936 41.0467 54.4676L39.6422 53.0702C37.8318 54.8212 36.1304 55.8365 33.5368 55.8365Z" fill="black"></path><path d="M139.181 38.3291H137.046V57.5084H139.181V38.3291Z" fill="black"></path><path fill-rule="evenodd" clip-rule="evenodd" d="M63.3484 44.0822V44.0277C63.3484 42.5208 62.8079 41.1784 61.8891 40.2466C60.7006 39.0413 58.8369 38.3286 56.5131 38.3286H48.3813V57.5079H50.5158V50.0553H55.9189L61.4029 57.5084H64.0235L58.215 49.6717C61.1869 49.1231 63.3484 47.2606 63.3484 44.0822ZM50.5158 48.1103V40.3287H56.3509C59.4036 40.3287 61.1864 41.7535 61.1864 44.1097V44.1647C61.1864 46.6304 59.16 48.1103 56.3238 48.1103H50.5158Z" fill="black"></path><path fill-rule="evenodd" clip-rule="evenodd" d="M73.6543 48.822H83.9743V46.85H73.6543V40.3016H85.1899V38.3291H71.5204V57.5084H85.3251V55.5339H73.6543V48.822Z" fill="black"></path><path fill-rule="evenodd" clip-rule="evenodd" d="M114.394 40.3287H120.743V57.5084H122.903V40.3287H129.252V38.3291H114.394V40.3287Z" fill="black"></path><path fill-rule="evenodd" clip-rule="evenodd" d="M149.082 38.3291H146.705L154.836 57.6445H156.728L157.904 54.8497H155.81L149.082 38.3291Z" fill="black"></path><path fill-rule="evenodd" clip-rule="evenodd" d="M174.328 55.5339V48.822H184.647V46.85H174.328V40.3016H185.863V38.3291H172.193V57.5084H186V55.5339H174.328Z" fill="black"></path><path fill-rule="evenodd" clip-rule="evenodd" d="M159.685 45.37H161.895L164.859 38.3291H162.563L159.685 45.37Z" fill="black"></path><path fill-rule="evenodd" clip-rule="evenodd" d="M76.1786 68.0406C74.8022 67.6821 74.4607 67.5082 74.4607 66.9782V66.9546C74.4607 66.5632 74.8128 66.2513 75.4846 66.2513C76.1559 66.2513 76.8504 66.5514 77.5551 67.0485L78.4651 65.7095C77.6577 65.0509 76.6673 64.6825 75.5073 64.6825C73.8805 64.6825 72.7201 65.6511 72.7201 67.1162V67.1398C72.7201 68.7435 73.7555 69.1939 75.3591 69.6089C76.6901 69.9537 76.9632 70.1856 76.9632 70.636V70.6596C76.9632 71.1311 76.5307 71.4194 75.8139 71.4194C74.9044 71.4194 74.1532 71.0397 73.4364 70.4395L72.4019 71.6964C73.3565 72.5614 74.5745 72.9882 75.7795 72.9882C77.4974 72.9882 78.7029 72.0903 78.7029 70.4867V70.4631C78.7034 69.0559 77.7938 68.4675 76.1786 68.0406Z" fill="black"></path><path fill-rule="evenodd" clip-rule="evenodd" d="M140.694 64.7979H137.589V72.8733H140.694C143.196 72.8733 144.926 71.1075 144.926 68.8358V68.8123C144.926 66.5401 143.196 64.7979 140.694 64.7979ZM143.094 68.8589C143.094 70.2892 142.128 71.2691 140.694 71.2691H139.34V66.4016H140.694C142.127 66.4016 143.094 67.405 143.094 68.8353V68.8589Z" fill="black"></path><path d="M162.169 64.7979H160.418V72.8733H162.169V64.7979Z" fill="black"></path><path fill-rule="evenodd" clip-rule="evenodd" d="M93.3421 66.4369H95.7652V72.8733H97.5179V66.4369H99.9405V64.7979H93.3421V66.4369Z" fill="black"></path><path fill-rule="evenodd" clip-rule="evenodd" d="M120.198 69.4243C120.198 70.7048 119.548 71.3634 118.48 71.3634C117.41 71.3634 116.763 70.6812 116.763 69.3658V64.7984H115.01V69.4125C115.01 71.7902 116.318 73 118.457 73C120.595 73 121.949 71.802 121.949 69.3565V64.7984H120.198V69.4243Z" fill="black"></path><path fill-rule="evenodd" clip-rule="evenodd" d="M181.877 65.7621C180.169 65.7621 178.984 67.1315 178.984 68.8078V68.8358C178.984 70.5122 180.197 71.912 181.905 71.912C183.614 71.912 184.8 70.5402 184.8 68.8638V68.8358C184.8 67.159 183.587 65.7621 181.877 65.7621Z" fill="black"></path></svg>