<svg xmlns="http://www.w3.org/2000/svg" width="210" height="110" viewBox="0 0 210 110" fill="none"><path d="M72.3464 56.637C70.1021 59.2117 66.2761 59.4783 63.6402 57.2957C62.3849 56.1039 61.5314 54.716 61.5314 53.1972C61.5314 52.3373 59.4226 52.8 56.7163 56.8985V70.0489C56.7163 73.6848 57.0477 76.3249 59.4226 76.9887V77.5167H42.9188V76.9887C45.4243 76.2595 45.4946 73.4182 45.4946 70.0489V53.9264C45.4946 51.6131 44.7013 50.6878 42 49.6972V49.1691L56.7113 46.3932V55.6413C61.3958 48.5707 63.3741 47.7812 65.3523 46.8559C67.2 45.9959 69.9715 46.3932 71.6837 47.9119C74.2544 50.1598 74.5858 54.1225 72.3414 56.637H72.3464Z" fill="#272525"></path><path d="M108.889 62.2542C108.889 70.9088 103.677 78.1152 91.8677 78.1152C80.0585 78.1152 74.8468 70.9139 74.8468 62.2542C74.8468 53.5945 80.0585 46.3932 91.8677 46.3932C103.677 46.3932 108.889 53.5291 108.889 62.2542ZM95.4978 62.2542C95.4978 50.2956 95.4325 46.9916 91.8677 46.9916C88.3028 46.9916 88.1723 50.2956 88.1723 62.2542C88.1723 74.2128 88.2376 77.5168 91.8677 77.5168C95.4978 77.5168 95.4978 74.2128 95.4978 62.2542Z" fill="#272525"></path><path d="M133.165 74.5447C133.165 74.5447 130.659 78.1152 123.002 78.1152C115.345 78.1152 111.258 75.8673 111.258 75.8673V67.2126H111.851C113.171 73.3579 118.644 77.5218 123.002 77.5218C127.687 77.5218 128.741 72.0403 123.73 68.7364L117.068 64.7032C110.867 60.6047 109.215 54.0672 113.242 49.5714C113.242 49.5714 115.682 46.3982 123.203 46.3982C130.725 46.3982 133.958 48.2488 133.958 48.2488V54.9925H133.366C132.176 49.0434 127.034 46.9966 123.203 46.9966C118.915 46.9966 116.872 51.2913 122.611 54.9271L129.274 59.091C135.279 62.7219 136.795 70.1897 133.165 74.5547V74.5447Z" fill="#272525"></path><path d="M167.93 61.5955H149.985C149.985 71.6381 153.153 74.2833 157.572 75.274C160.87 76.0032 165.289 74.0168 166.609 68.4046L167.202 68.5353C166.343 73.4234 161.528 78.1153 153.279 78.1153C145.029 78.1153 137.644 71.2408 137.644 62.3247C137.644 51.0902 146.154 46.3983 154.268 46.3983C161.262 46.3983 167.925 49.1743 167.925 61.5955H167.93ZM157.31 31L168 34.304L147.941 41.7718H142.534L157.31 31ZM158.365 61.0021C158.365 52.6743 157.506 46.9917 154.539 46.9917C151.572 46.9917 149.985 54.6557 149.985 61.0021H158.365Z" fill="#272525"></path></svg>