<svg xmlns="http://www.w3.org/2000/svg" width="210" height="110" viewBox="0 0 210 110" fill="none"><path d="M74.9244 51.7871L59.8321 30.594V42.908C59.8321 46.0671 60.0312 51.432 65.8757 51.432V51.7871H53.1439V51.432C58.666 51.432 59.4671 46.025 59.4671 42.908V30.122L57.5853 27.4769C55.1821 24.3598 53.6226 24.3972 52.5798 24.3225V24.0047H65.3495L78.9582 43.3846V32.8465C78.9582 29.178 77.6784 24.3225 73.2322 24.3225V24.0047H85.362V24.3225C80.3992 24.3225 79.3185 29.178 79.3185 32.8465V51.7918H74.9149L74.9244 51.7871Z" fill="black"></path><path d="M110.508 44.0529V51.7871H87.1301V51.432C88.8128 51.432 89.4527 49.0626 89.4527 46.3802V29.449C89.4527 27.0002 88.8934 24.3178 87.1301 24.3178V24H109.987V32.0894H109.626C109.626 24.3926 98.6958 24.3552 98.6958 24.3552H97.2548V37.5758H100.497C100.535 37.5758 104.782 37.6973 105.223 32.9212H105.583V42.5902H105.223C104.782 37.8562 100.54 37.9356 100.497 37.9356H97.2548V51.432H98.6958C98.6958 51.432 110.143 51.8666 110.143 44.0529H110.508Z" fill="black"></path><path d="M158.501 24.0047V24.3225C156.899 24.3225 154.458 25.5468 151.538 32.4913L144.532 51.7918H143.091C139.37 43.2257 136.967 37.702 135.365 34.1129L128.961 51.7918H127.52C117.433 28.5471 116.912 27.519 116.912 27.519C115.551 24.3598 114.992 24.4019 113.949 24.3225V24.0047H126.439V24.3225C123.88 24.3225 125.918 28.9022 125.918 28.9022L131.962 42.4406L135.166 33.6409C132.725 28.0377 132.483 27.5236 132.483 27.5236C131.123 24.3645 130.563 24.4066 129.52 24.3271V24.0093H142.01V24.3271C139.451 24.3271 141.489 28.9069 141.489 28.9069L147.495 42.4827L151.097 32.496C152.097 29.692 151.216 24.3271 147.134 24.3271V24.0093H158.501V24.0047Z" fill="black"></path><path d="M86.5518 58.2175V58.5306C84.9496 58.5306 82.5085 59.755 79.5886 66.6995L72.5828 86H71.1419C67.4209 77.4339 65.0177 71.9102 63.4156 68.3211L57.0118 86H55.5708C45.4839 62.7553 44.9625 61.7271 44.9625 61.7271C43.6021 58.568 43.0428 58.6101 42 58.5306V58.2175H54.49V58.5306C51.9304 58.5306 53.9686 63.1104 53.9686 63.1104L60.0122 76.6488L63.2165 67.8491C60.7754 62.2459 60.5336 61.7318 60.5336 61.7318C59.1732 58.5727 58.6139 58.6148 57.5711 58.5353V58.2222H70.0611V58.5353C67.5015 58.5353 69.5397 63.1151 69.5397 63.1151L75.5454 76.6909L79.1478 66.7041C80.148 63.9049 79.2663 58.5353 75.1851 58.5353V58.2222H86.5518V58.2175Z" fill="black"></path><path d="M98.7574 58.2175H98.9565C109.086 81.1071 109.764 82.4109 109.764 82.4109C111.205 85.5701 112.565 85.6074 113.366 85.6869V86H99.3547V85.6869C102.559 85.6869 100.156 81.0697 100.156 81.0697L98.8759 78.3452H91.0311C90.2301 80.1584 90.9506 85.6869 95.757 85.6869V86H84.2292V85.6869C85.4284 85.6074 87.5899 85.2897 90.6756 78.3452L98.7622 58.2175H98.7574ZM94.7142 69.1109L91.1496 77.9901H98.7148L94.7094 69.1109H94.7142Z" fill="black"></path><path d="M141.589 58.2175V58.5306C139.868 58.5306 137.304 59.755 134.185 66.6995L126.297 86H125.136C114.409 62.7553 113.85 61.7271 113.85 61.7271C112.409 58.568 111.807 58.6101 110.688 58.5306V58.2175H124.017V58.5306C121.254 58.5306 123.458 63.1104 123.458 63.1104L129.663 76.7236L133.786 66.6995C134.986 63.7787 134.265 58.5306 129.463 58.5306V58.2175H141.593H141.589Z" fill="black"></path><path d="M167 78.2658V86H143.622V85.6448C145.305 85.6448 145.945 83.2755 145.945 80.593V63.6619C145.945 61.2131 145.385 58.5306 143.622 58.5306V58.2175H166.479V66.3069H166.118C166.118 58.6101 155.188 58.5727 155.188 58.5727H153.747V71.7933H156.989C157.027 71.7933 161.274 71.9101 161.715 67.1341H162.075V76.803H161.715C161.274 72.069 157.032 72.1485 156.989 72.1485H153.747V85.6448H155.188C155.188 85.6448 166.635 86.0794 166.635 78.2658H167Z" fill="black"></path></svg>