<svg xmlns="http://www.w3.org/2000/svg" width="210" height="110" viewBox="0 0 210 110" fill="none"><path d="M42.1188 60.0595C42.2609 60.1346 42.4068 60.2134 42.5489 60.2397C43.6522 60.6639 44.5162 61.3134 45.4288 61.9591C46.7266 62.9351 47.6354 64.3016 48.1179 66.0661C48.4059 67.2786 48.2151 68.7014 47.3998 70.2631C47.1604 70.7774 46.8724 71.3481 46.4872 71.8361C46.3451 72.0501 46.102 72.3729 45.8626 72.5982C44.95 73.593 43.944 74.3101 42.8369 74.8994C42.3096 75.2636 41.7336 75.3912 41.2062 75.4175C40.7761 75.4776 40.3909 75.5789 39.9571 75.8793C39.5718 76.127 39.2352 76.2697 38.8051 76.4724C37.7953 76.8553 36.9314 77.0205 36.0674 76.998C34.7696 76.9867 33.5242 76.7727 32.7088 76.0219C31.987 75.3499 31.7962 74.3664 32.2301 72.9548C32.5667 72.0914 32.9968 71.2092 33.6214 70.3044C34.1487 69.4598 34.7733 68.6038 35.54 67.8192C35.6822 67.7028 35.7794 67.4964 35.8767 67.3387C36.2619 66.5616 36.4526 66.3927 37.1707 66.3889C37.4587 66.2538 37.6494 65.792 38.0347 65.8821C37.8439 66.006 37.6981 66.1224 37.4101 66.3063C37.6494 66.3213 37.7953 66.3476 37.8888 66.3363C37.8888 66.5766 37.8888 66.7718 37.9374 67.0046C37.986 67.1435 37.9374 67.2936 37.7953 67.5076C37.5073 67.9318 37.268 68.3523 36.9314 68.8328C36.4526 69.5273 36.116 70.1505 36.0188 70.8863C35.9215 71.333 35.9215 71.7197 35.8767 72.2078C35.828 72.5531 35.9739 72.7709 36.3068 72.8234C36.692 72.9135 37.1707 72.8948 37.6494 72.7333C38.5134 72.4668 39.426 72.1477 40.2899 71.6446C41.1539 71.1378 42.0665 70.6723 42.9304 70.1205C43.555 69.7451 44.2245 69.2645 44.8004 68.6564C45.2305 68.2584 45.3764 67.853 45.2305 67.5827C44.8939 66.5203 44.4638 65.6193 43.5513 65.0224C42.0627 64.0238 40.3348 63.2054 38.6069 62.4358C37.5522 61.9553 36.591 61.4147 35.6784 60.7728C34.6237 60.1008 33.8533 59.1473 33.2773 58.1186C32.174 56.4406 33.1801 53.7939 34.7172 51.7029C36.1085 49.7733 37.9823 48.358 39.901 47.029C40.4769 46.7062 41.0529 46.4847 41.5802 46.1693C44.5087 44.7015 47.2427 44.2247 49.8832 44.0483C50.6985 44.0295 51.469 44.0671 52.2843 44.0483C53.1483 44.0258 53.9636 44.1046 54.5882 44.4988C54.8275 44.6564 54.9734 44.8291 54.8275 45.2346C54.7789 45.3359 54.7789 45.4823 54.7789 45.58C54.7303 45.8277 54.7303 46.068 54.6368 46.3233C54.2516 47.198 53.9636 48.0577 53.9187 48.8798C53.8701 49.2252 53.6307 49.7395 53.3914 50.16C53.2006 50.5729 52.9126 50.8995 52.7182 51.2674C52.5274 51.6316 52.288 51.9056 51.9514 52.1459C51.4241 52.4612 50.9902 52.7615 50.4629 52.9793C50.1749 53.1632 49.8869 53.2045 49.6962 53.0881C48.9744 52.9004 48.2076 52.8629 47.4409 52.8742C45.9038 52.8967 44.3703 52.8667 42.691 53.152C42.2123 53.2646 41.6812 53.3885 41.2025 53.5987C40.6265 53.7751 40.0992 53.9929 39.5718 54.1656C36.116 55.5133 38.1319 57.7395 39.8598 58.7493C40.6265 59.1247 41.397 59.594 42.1151 60.0745L42.1188 60.0595Z" fill="black"></path><path d="M70.102 59.6278C70.0533 59.9732 69.5746 61.197 69.3353 61.4222C69.1931 61.4898 69.1445 61.64 69.0473 61.7038C68.8565 61.9703 68.7107 62.1843 68.5199 62.4021C68.4227 62.5109 68.2806 62.6273 68.2319 62.7812C68.0861 63.0891 67.8953 63.2617 67.656 63.4382C67.5587 63.4983 67.4652 63.5621 67.4166 63.6634C67.1286 64.0426 66.7434 64.3842 66.4554 64.7146C66.1674 64.9961 65.8794 65.1801 65.5428 65.3227C65.1127 65.4804 64.7275 65.533 64.3423 65.7319C64.0057 65.9234 63.6242 65.976 63.239 66.1261C63.0968 66.1449 62.951 66.1674 62.8088 66.1862C62.2329 66.0736 61.6569 66.0586 61.1782 65.7395C61.1296 65.6982 61.0323 65.6644 60.9388 65.6268C60.5087 65.4954 60.0749 65.3152 59.7869 64.9699C59.4016 65.2139 59.065 65.4541 58.7808 65.7357C58.5901 65.8596 58.4442 65.976 58.2535 66.1449C58.2048 66.1524 58.1562 66.205 58.1562 66.205C57.8682 66.6329 57.483 66.7343 57.1015 66.9295C56.4283 67.2148 55.7588 67.3087 55.1342 67.0609C54.8949 66.9483 54.6555 66.8882 54.4161 66.8244C53.0248 66.4415 52.2544 65.4879 52.1123 64.0126C52.015 63.2542 52.1609 62.5147 52.4975 61.7901C52.8341 61.1182 53.1707 60.4462 53.6494 59.8455C53.6494 59.7967 53.6981 59.7404 53.7467 59.6878C54.3713 58.6367 55.138 57.6156 55.8598 56.647C56.3872 55.9938 56.9631 55.4345 57.685 54.8976C57.7822 54.8376 57.9729 54.7625 58.1188 54.74C58.4068 54.6536 58.6948 54.5635 59.0314 54.5185C59.08 54.511 59.1286 54.5034 59.1735 54.4997C59.4615 54.6048 59.8467 54.5485 60.1833 54.601C60.2806 54.6348 60.3741 54.6686 60.4713 54.6574C60.7107 54.6724 60.9014 54.6461 60.9987 54.8225C61.0473 54.8638 61.0959 54.8563 61.0959 54.8563C61.3353 54.8225 61.526 55.0365 61.7691 55.0027C61.8663 54.9877 61.9599 55.0253 62.0085 55.0666C62.2965 55.3143 62.6331 55.5095 62.8238 55.8211C62.8724 55.96 62.921 56.0501 62.9659 56.1853C63.0632 56.6057 62.9659 56.9061 62.5358 57.2101C62.1057 57.4617 61.7205 57.807 61.3353 58.1487V58.1975C60.8079 58.8019 60.1833 59.3688 59.7532 60.0558C59.5625 60.3223 59.368 60.5438 59.1772 60.7615C58.7471 61.3021 58.4105 61.8802 58.0253 62.4621C57.8794 62.7249 57.6887 62.9915 57.5466 63.2054C57.4493 63.3143 57.4007 63.4194 57.3558 63.5208C57.0678 64.0914 56.8771 64.647 56.7799 65.1914C56.7312 65.2439 56.7799 65.289 56.7799 65.3828C56.8771 65.319 56.922 65.2664 56.9706 65.2101C57.4493 64.662 57.9804 64.1064 58.5564 63.5921C58.8444 63.3106 59.0837 63.0365 59.2782 62.6724C59.3755 62.5147 59.5176 62.3495 59.6635 62.1843C59.9514 61.8052 60.2394 61.4298 60.4788 61.0093C60.8154 60.4312 61.152 59.8568 61.4886 59.2298C61.9187 59.121 62.2553 59.121 62.5433 59.4213C62.6405 59.5039 62.734 59.5865 62.8313 59.6691C63.1679 60.0558 63.2165 60.5325 63.2614 61.0055C63.2614 61.1031 63.2128 61.1557 63.1642 61.2608C62.9734 61.7226 62.7303 62.2369 62.4909 62.7024C62.3488 63.059 62.3002 63.4044 62.3488 63.7348C62.4461 64.1064 62.5882 64.5194 62.7789 64.8798C62.8762 65.0112 63.0183 65.0862 63.209 65.06C63.5456 64.9661 63.8822 64.8723 64.2188 64.677C64.5068 64.4931 64.8434 64.3016 65.1314 64.0689C65.468 63.8286 65.8046 63.5921 66.1861 63.2955C66.4255 63.0215 66.7135 62.7887 66.9528 62.5147C67.5774 61.8014 68.5386 60.0783 69.1595 59.365C69.2081 59.3087 69.2567 59.3049 69.3016 59.2486C69.6382 59.2486 69.8776 59.41 70.1169 59.6165L70.102 59.6278Z" fill="black"></path><path d="M82.6312 57.5931C82.6312 57.8821 82.4853 57.9009 82.5339 58.1374C82.5826 58.3214 82.0552 59.793 81.958 59.9994C81.67 60.8103 81.3334 61.6287 81.0454 62.4396C80.6153 63.3669 80.1814 64.2003 79.7476 65.0787C79.5569 65.4429 77.3016 68.6489 77.0585 68.8741C76.4339 69.3922 75.3792 70.7925 74.8032 71.2617C74.418 71.5545 72.9781 72.2866 72.6415 72.3805C72.0169 72.5156 71.3437 72.6582 70.7677 72.5944C69.7579 72.5907 68.2731 71.303 67.7906 70.4058C67.5513 70.0041 67.2633 69.6587 67.1174 69.197C66.9267 68.5963 66.7808 67.6052 66.7322 66.8882C66.7322 62.8413 67.2109 62.1956 68.3628 58.1337C68.4601 57.7845 68.5087 57.4879 68.6022 57.1351C68.6508 56.7897 68.793 56.433 68.8902 56.1327C69.0323 55.5809 69.1782 55.0328 69.3203 54.5297C69.5597 53.4373 70.8088 51.4288 69.6569 51.35C69.3203 51.35 69.0323 51.4363 68.7443 51.2374C68.4563 51.0835 68.1684 50.9821 67.8804 50.8282C67.7831 50.7456 67.641 50.6668 67.5924 50.434C67.6896 50.3739 67.7831 50.3101 67.8318 50.3026C68.505 50.0661 69.1296 49.8333 69.799 49.5968C70.2291 49.4392 70.7116 49.3228 71.1903 49.2102C71.3811 49.1351 71.5756 49.0112 71.6691 48.7559C71.8112 48.3505 72.0543 47.9788 72.1478 47.5321C72.6265 46.5485 72.9631 45.5387 73.4905 44.5964C73.9692 43.7592 74.4517 43.0159 75.0763 42.3514C75.1735 42.1938 75.3156 42.0286 75.4129 41.9197C75.6036 41.747 75.7981 41.6269 76.0375 41.6419C76.3254 41.6982 76.6134 41.5143 76.95 41.4655C76.9824 41.4605 77.0149 41.4404 77.0473 41.4054C77.7205 41.1689 77.9598 41.4242 78.1506 41.9272C78.39 42.374 78.4872 42.8432 78.4872 43.4213C78.4872 43.7104 78.5358 43.9432 78.5844 44.1797C78.6331 44.3674 78.6331 44.6076 78.5844 44.8554C78.5358 45.1032 78.4872 45.351 78.4423 45.6475C78.3451 46.0455 78.2516 46.4434 78.1543 46.8451C78.1543 46.9915 78.1543 47.0853 78.1057 47.2355C78.2516 47.3106 78.3937 47.2918 78.5844 47.2655C79.1604 47.1379 79.785 47.0028 80.361 46.8751C81.1763 46.7625 82.0403 46.6424 82.8556 46.526C83.1436 46.4847 83.4316 46.541 83.7682 46.5448C83.6709 46.7024 83.626 46.8038 83.5774 46.8601C83.4802 46.969 83.3381 47.0853 83.2408 47.1492C82.9042 47.3406 82.519 47.5884 82.1861 47.7799C82.1861 47.8287 82.1375 47.8324 82.1375 47.8324C81.6102 47.9563 81.0342 48.2754 80.4582 48.3092C80.1216 48.3542 79.785 48.4518 79.4484 48.5945C79.2577 48.7146 79.0145 48.7484 78.8238 48.8235C78.4386 48.9249 78.1057 49.0187 77.7205 49.1201C77.5297 49.1952 77.4325 49.3528 77.3353 49.5593C77.2866 49.6156 77.2866 49.6607 77.238 49.717C76.662 51.4363 75.8953 53.0844 75.2707 54.7625C75.1735 54.969 75.08 55.1754 75.0314 55.3256C74.792 55.8399 74.6013 56.3017 74.4554 56.8498C74.3133 57.304 74.0702 57.7695 73.8308 58.19C73.6401 58.5541 73.685 58.9821 73.4456 59.35C72.9182 60.6301 72.2937 64.3767 72.3909 66.1937C72.4395 66.9595 72.6303 67.654 72.8696 68.3448C72.9669 68.57 73.1576 68.6902 73.2997 68.8629C73.3484 68.8554 73.397 68.8966 73.4905 68.8854C73.9206 68.8253 74.7883 68.754 75.2184 68.4049C75.5064 68.1721 76.9463 66.8131 77.2343 66.5316C77.9524 65.7094 79.5868 63.6972 80.0655 62.6686C80.4956 61.7901 80.7387 60.6977 81.1688 59.8643C81.3596 59.3537 81.842 58.2275 82.0814 57.6644C82.3208 57.6794 82.6574 57.4391 82.6087 57.5893L82.6312 57.5931ZM75.1922 51.5002C75.6709 50.2275 75.8168 49.244 74.231 50.4753C73.7037 52.1384 73.5129 53.2759 73.0791 54.83C72.0244 58.9746 73.5578 55.7761 74.231 53.899C74.5676 52.938 74.7584 52.4274 75.1922 51.5002ZM76.6807 45.7526C76.7294 45.5537 76.778 45.3059 76.8229 45.0581C76.8715 44.664 76.9687 44.266 77.0136 43.8756C77.0622 43.4364 77.0136 43.0084 76.965 42.5804C76.9164 42.3927 76.7743 42.3664 76.677 42.4753C76.4863 42.648 76.3404 42.7644 76.2469 43.0159C76.0562 43.4289 75.8617 43.8869 75.7682 44.3336C75.7196 44.4838 75.6223 44.6414 75.5774 44.7953C75.4802 45.0018 75.3867 45.2083 75.2894 45.4636C75.1922 45.9591 75.0987 46.5035 74.9528 47.0516C74.7621 48.3317 76.1048 48.1928 76.3928 47.2843C76.49 46.7888 76.5835 46.2932 76.6807 45.7489V45.7526Z" fill="black"></path><path d="M86.3301 62.327C85.5148 62.8751 84.4601 62.9727 83.929 63.1942C83.4989 63.2542 82.3918 63.1679 82.0589 63.0215C80.8584 62.4659 80.8098 62.1355 80.5704 60.5776C80.4283 60.2134 80.5218 59.3312 80.8098 58.5203C81.0491 57.3791 83.641 53.0168 84.0748 51.9469C84.3142 51.3838 84.5536 50.8207 84.9388 50.1862C85.0847 49.8296 85.324 49.6982 85.5634 49.5218C85.9 49.3303 86.2366 49.2815 86.476 49.0074C87.1978 48.5232 86.6667 48.2604 87.1492 48.144C87.6279 48.0764 87.9645 48.2228 88.2039 48.5269C88.3946 48.5494 88.3946 48.7897 88.5891 48.9549C88.735 49.03 88.6863 49.2327 88.6863 49.4242C88.3984 50.6705 87.3437 53.0806 87.0557 54.2782C86.8163 54.6499 86.7191 56.0126 86.6218 56.3129C86.5246 56.8085 86.4311 57.2552 86.1917 57.7695C86.0945 58.1674 85.8551 58.9258 86.0945 59.0834C86.2852 59.2974 86.3825 60.1046 86.6704 59.9657C87.8224 59.1773 89.3596 58.9145 89.9804 58.0586C90.3656 57.4767 90.605 57.6832 90.9902 57.1463C91.3268 56.7634 91.4241 56.4593 91.5662 56.2003C91.8542 55.5321 91.9028 55.7198 92.1422 55.1567C92.4301 54.4884 92.8602 53.8502 93.2455 53.2683C93.3913 52.8141 93.5821 52.4988 93.8701 52.0745C94.3488 51.8643 94.3002 51.9169 94.4947 51.9394C95.2165 51.793 94.5919 51.9244 95.022 52.1046C95.1192 52.2848 95.022 52.4912 95.1641 52.5663C94.8275 53.5274 94.7789 54.4997 94.3488 55.6184C94.2029 55.975 94.3002 55.6259 94.0122 56.0989C94.0608 56.3805 93.8701 56.8422 93.6756 57.2552C93.4848 57.7169 93.5335 58.2388 93.2455 58.6667C92.8602 60.3598 92.6695 61.2533 92.6695 61.4448C92.5274 62.0905 94.2067 62.2894 95.886 61.5274C96.9893 60.8929 98.9566 58.7381 99.8691 57.1163C100.206 56.4931 100.494 55.8737 101.021 55.029C101.5 54.0942 101.885 55.487 101.694 55.8512C101.552 56.1139 101.455 56.3167 101.406 56.4706C101.021 56.8122 100.591 58.4152 100.254 58.7531C100.157 58.8619 100.206 59.0008 99.9664 59.1285C99.3418 60.0332 98.0926 61.5574 97.1351 62.4621C96.705 62.6198 96.6564 62.77 96.2226 63.0252C95.886 63.4082 95.7925 63.472 95.3586 63.7723C95.022 63.9638 94.9734 64.0201 94.8313 64.1815C94.446 64.1364 94.3525 64.2979 94.2067 64.4143C93.2941 65.0712 89.4082 65.807 89.1202 64.2078C88.8808 62.7474 88.6415 61.9628 89.0716 60.2622V60.0708C88.3984 60.8366 87.1529 61.685 86.3338 62.3307L86.3301 62.327Z" fill="black"></path><path d="M105.962 56.0276C106.152 55.2768 107.832 51.6241 108.168 50.9971C108.456 50.5241 108.744 50.0473 108.984 49.533C109.272 49.1088 109.56 48.632 109.75 48.2228C109.941 47.8587 110.229 47.6259 110.517 47.5396C110.854 47.4908 111.142 47.4044 111.43 47.3632C112.006 47.2843 112.342 47.6672 112.63 48.2566V48.4481C112.727 49.0638 112.87 49.717 112.967 50.3777C113.064 50.9896 113.015 51.6729 113.015 52.2998C113.015 52.7353 113.064 53.1595 113.015 53.6025C113.255 53.7151 113.206 53.914 113.255 53.8577C113.352 53.7489 113.685 53.8465 113.782 53.7339C113.831 53.6325 113.924 53.5687 113.973 53.4673C114.164 53.2946 114.358 53.1257 114.549 52.8591C114.691 52.6001 114.837 52.5776 115.028 52.7916C115.028 52.9342 114.979 53.0882 114.837 53.2045C114.788 53.2608 114.74 53.3622 114.695 53.4636C114.646 53.6137 114.553 53.7714 114.407 53.8427C114.358 53.8953 114.31 53.9516 114.265 54.0079C114.216 54.0642 114.119 54.1243 114.119 54.1731C114.07 54.2294 114.022 54.2331 113.977 54.2895C113.786 54.511 113.64 54.5785 113.449 54.6048C113.401 54.6123 113.21 54.6874 113.019 54.8563C112.873 54.9727 112.731 54.9915 112.634 54.9089C112.297 54.7625 111.961 54.7625 111.628 54.6649C111.052 54.601 110.618 54.1318 110.379 53.4898C110.091 52.6639 110.091 51.6991 110.233 50.7644C110.33 50.3176 110.33 49.931 110.379 49.5405C110.427 49.244 110.476 48.9474 110.521 48.6546C110.618 48.4481 110.618 48.3017 110.569 48.1177C110.521 48.1252 110.427 48.0914 110.427 48.1853C110.379 48.2416 110.281 48.3505 110.237 48.4518C110.046 48.8648 109.806 49.2815 109.563 49.7508C109.421 50.0135 109.324 50.3139 109.275 50.6592C109.324 50.847 109.178 51.0084 109.133 51.1623C108.703 52.0408 108.318 52.8667 108.03 53.8202C107.791 54.5297 107.454 55.1529 107.166 55.8662C106.736 56.9398 106.205 57.9272 105.868 59.0346C105.771 59.3838 105.58 59.7967 105.438 60.2022C105.341 60.5025 104.14 62.9839 103.856 63.2655C103.856 63.3631 103.71 63.4307 103.617 63.5395C103.041 64.4405 102.367 64.4856 101.601 64.3992C101.504 64.5081 101.41 64.4255 101.313 64.3429C100.546 64.2566 100.161 63.5884 99.9701 62.6498C99.828 61.8502 99.828 60.983 99.828 60.1646C99.8766 58.9032 99.9252 57.6456 100.019 56.3805C100.258 54.9502 100.067 55.0741 100.449 53.7188C100.785 51.793 100.595 52.1083 101.264 50.1374C101.313 49.7921 101.504 49.5255 101.601 49.1764C101.937 48.2604 102.225 47.4533 102.611 46.6274C102.801 45.9741 102.996 45.8503 103.475 45.8803C103.811 45.8315 104.241 45.869 104.675 45.9066C104.963 45.9141 105.251 45.9704 105.636 46.2557C105.973 46.8338 106.452 47.2017 106.934 47.7123C107.364 48.4218 107.461 48.9887 107.173 49.9422C106.934 50.9408 106.837 50.2313 106.598 51.2749C105.973 53.3847 104.821 55.1379 104.294 57.0412C103.572 59.4551 105.782 56.8798 105.973 56.0351L105.962 56.0276Z" fill="black"></path><path d="M133.515 61.6813C133.612 61.5724 133.754 61.456 133.851 61.2984C134.427 60.4462 133.709 61.2683 134.237 60.3749C134.427 59.9619 134.622 59.5978 134.861 59.2299C135.34 58.4415 135.291 57.8221 136.159 56.0126C137.311 54.2632 138.078 52.4687 139.039 50.6968C139.615 49.6044 139.424 48.9098 140.337 49.4542C140.913 49.8071 140.146 49.6757 140.146 50.5429C140.482 50.4941 139.57 51.4927 139.667 51.38C139.955 51.7254 139.764 52.0408 139.57 52.3073C139.14 52.6564 139.667 53.6926 138.897 53.5574C138.272 54.6086 137.647 54.9352 137.217 55.96C137.027 56.7559 136.593 56.144 137.217 56.6846L136.784 57.274C135.92 58.5504 136.017 58.633 135.871 59.3763C135.774 59.4363 135.729 59.4926 135.729 59.5414C135.489 59.9131 135.295 60.2284 135.056 60.5513C134.914 60.7165 134.816 60.923 134.768 61.1219C134.622 61.5762 134.431 61.9891 134.192 62.4058C134.001 62.7212 133.806 63.0365 133.616 63.3068C133.328 63.686 133.04 64.0614 132.655 64.358C132.415 64.6808 131.981 64.9811 131.645 65.2702C131.069 65.6419 130.639 66.036 130.063 66.3589C130.014 66.4152 129.965 66.5654 129.872 66.6742C129.438 66.7343 129.057 66.7381 128.574 66.6142C127.613 66.3626 127.564 66.5616 126.749 65.7132C126.027 65.2852 125.548 64.6283 125.118 63.9675C124.879 63.472 124.542 62.9877 124.445 62.3758C124.396 62.2857 124.396 62.1881 124.303 62.1543C124.112 61.9403 124.112 61.7939 124.112 61.5048C124.161 61.1595 123.97 60.8028 123.921 60.4237C123.824 60.0032 123.731 59.5827 123.682 59.1097C123.633 58.877 123.585 58.5954 123.633 58.3476C123.585 58.2575 123.491 58.2238 123.491 58.1262C123.394 58.235 123.301 58.3439 123.203 58.4565C122.964 58.7794 122.818 59.136 122.725 59.5377C122.534 60.4312 122.051 61.0769 121.236 61.4298C120.997 61.5611 120.806 61.6362 120.612 61.854C120.324 62.1843 119.796 62.3533 119.362 62.3157C118.786 62.2519 118.113 62.1505 117.537 61.8953C116.673 61.5837 116.097 60.9868 115.712 60.1759C115.424 59.6841 115.282 59.1285 115.327 58.5429C115.327 58.3514 115.278 58.2125 115.23 58.0248C115.23 57.8333 115.181 57.6456 115.23 57.4955C115.23 56.8685 115.23 56.1928 115.372 55.5959C115.66 54.3983 115.899 53.2083 116.475 52.1158C117.1 50.9671 117.769 49.7658 118.682 48.7259C119.594 47.5884 120.795 46.6987 122.137 46.0755C122.377 45.8953 122.713 45.8503 123.001 45.7639C123.144 45.7451 123.241 45.7789 123.387 45.8052C123.675 45.8615 123.963 45.9666 124.202 46.0267C125.93 48.1478 125.593 44.3862 126.315 42.9371C126.412 42.7306 126.461 42.4828 126.554 42.2764C126.7 41.9685 126.794 41.6156 126.891 41.2665C127.082 40.8047 127.276 40.3467 127.418 39.8925C127.561 39.6297 127.609 39.3819 127.706 39.0816C128.092 38.3533 128.473 37.5762 128.81 36.8066C129.146 36.2323 129.483 35.6541 129.913 35.1586C130.343 34.7607 130.777 34.3139 131.162 33.8784C131.308 33.7133 131.547 33.5368 131.738 33.3641C132.168 33.0638 132.554 32.7672 132.939 32.4256C133.515 31.9113 134.188 31.915 134.809 32.1628C135.243 32.343 135.527 32.6884 136.009 32.9099C136.107 32.9925 136.155 33.1314 136.2 33.2665C136.249 33.7883 136.342 34.3064 136.249 34.8508C136.2 35.1961 136.151 35.5378 136.103 35.9319C136.103 36.3186 136.103 36.7503 135.863 37.1708C135.815 37.2721 135.863 37.3622 135.815 37.4674C135.766 37.7639 135.673 38.068 135.527 38.327C135.288 38.6987 135.097 39.1117 134.902 39.5697C134.76 39.9751 134.614 40.3805 134.424 40.7935C134.326 41.0976 134.233 41.3491 134.184 41.6457C134.042 42.0999 133.848 42.5617 133.608 42.9296C133.223 43.3688 132.984 43.8343 132.842 44.3374C132.699 44.7428 132.411 45.0732 132.123 45.3059C131.884 45.58 131.645 45.854 131.499 46.1618C131.308 46.8639 130.826 47.5096 130.396 48.099C130.01 48.6358 130.25 48.7447 130.01 49.2627C129.82 49.4354 129.771 49.6344 129.722 49.8334C129.625 50.2313 129.532 50.678 129.483 51.0722C129.434 51.4626 129.341 51.8155 129.195 52.2698C129.244 52.5513 129.146 52.8554 129.146 53.1933C129.195 53.2834 129.146 53.4335 129.049 53.5424C129.049 53.7827 129 54.0304 129.049 54.2669C129.146 54.5898 129.098 54.9352 129.049 55.2317V56.4856C129.049 56.5832 129.049 56.6283 129.098 56.6733C129.24 56.9436 129.146 57.2439 129.195 57.5255C129.244 58.1937 129.434 58.7944 129.629 59.3913C129.82 59.5077 129.868 59.6466 129.917 59.8343C130.014 59.9657 130.108 60.1459 130.059 60.2472C130.01 60.5438 130.156 60.7165 130.298 60.8404C130.635 61.4673 131.114 61.8352 131.641 62.2444C131.499 62.312 131.353 62.2857 131.256 62.4434C131.207 62.3533 131.256 62.2031 131.114 62.128C131.114 62.0792 131.065 62.0379 130.923 62.1543C131.114 62.2707 131.162 62.3157 131.259 62.4434C131.499 62.556 131.69 62.7212 131.981 62.7287C131.981 62.6799 132.03 62.5297 132.079 62.4734L132.03 62.4809C132.991 62.2031 133.04 61.9553 133.518 61.6963L133.515 61.6813ZM121.034 55.472C120.937 55.6297 120.892 55.7798 120.795 55.9375C120.555 56.4068 120.365 56.8648 120.122 57.3791C119.931 58.2726 119.834 59.2036 120.312 60.052C120.312 60.1496 120.41 60.1834 120.454 60.2247C120.84 60.0257 121.079 59.7029 121.318 59.4288C121.704 58.892 122.182 58.3439 122.612 57.8033C122.9 57.4729 123.14 57.105 123.334 56.6921C123.334 56.5945 123.383 56.4931 123.383 56.3955C123.432 56.0501 123.432 55.7648 123.48 55.4194C123.432 55.0891 123.432 54.7512 123.48 54.4058C124.295 51.594 123.622 50.6292 122.137 53.3397C121.61 53.9929 121.416 54.6912 121.034 55.4683V55.472ZM126.506 64.6358C126.457 64.5945 126.506 64.4931 126.506 64.4443C126.457 64.403 126.409 64.3617 126.364 64.3204L126.266 64.3842C126.266 64.433 126.315 64.4743 126.412 64.5081C126.412 64.5569 126.461 64.5982 126.461 64.5982C126.558 64.7296 126.558 64.8272 126.652 64.9549C127.179 65.5067 127.706 65.9159 128.525 66.0435C128.574 66.0848 128.716 66.0661 128.911 66.0398C128.765 65.9159 128.72 65.8258 128.574 65.7507C127.998 65.3978 127.374 65.0037 126.798 64.647C126.7 64.6132 128.862 64.1665 128.813 64.2716L126.51 64.6395L126.506 64.6358ZM128.137 65.2289L128.185 65.2702C128.137 65.2289 128.185 65.2214 128.185 65.2214V65.1726C128.185 65.1726 128.137 65.1801 128.137 65.2289ZM128.664 60.9154L128.567 60.9305C128.661 60.9505 128.709 60.9755 128.709 61.0055V60.9567L128.66 60.9154H128.664ZM128.806 61.2796V61.2308L128.757 61.2871L128.806 61.2796ZM128.997 61.5424L128.948 61.5949C128.981 61.6225 128.997 61.6525 128.997 61.685C128.997 61.685 129.045 61.6775 129.094 61.67C129.094 61.6212 128.997 61.5874 128.997 61.5386V61.5424ZM129.812 60.2697C129.844 60.2647 129.877 60.261 129.909 60.2585C129.861 60.2172 129.861 60.1684 129.812 60.1271C129.715 59.8042 129.621 59.5752 129.475 59.2561C129.333 58.9858 129.333 58.6968 128.997 58.4565C129.143 59.0609 129.427 59.5527 129.719 59.9957C129.719 60.0445 129.719 60.1383 129.816 60.1271C129.864 60.1684 129.864 60.2172 129.816 60.2697H129.812ZM130.725 62.4058C130.676 62.3157 130.485 62.1993 130.339 62.0755C130.194 61.7113 129.954 61.4072 129.618 61.1144C129.569 61.0731 129.569 60.9755 129.378 61.0994C129.763 61.5274 130.051 61.9703 130.433 62.3495C130.433 62.4959 130.579 62.5222 130.721 62.5973V62.4058H130.725ZM132.262 43.5452C132.647 42.9634 133.077 42.3702 133.414 41.6982C133.75 40.831 134.132 40.0089 134.566 39.1304C134.663 38.8751 134.712 38.6762 134.712 38.3871C134.712 38.1957 134.712 37.9554 134.809 37.7489C135.288 36.5739 135.336 35.3125 135.385 34.0549C135.385 33.7658 135.336 33.4843 135.288 33.1989C135.097 32.7935 134.902 32.771 134.569 33.0112C134.472 33.1201 134.33 33.1877 134.281 33.3416C134.136 33.7958 133.803 34.1788 133.563 34.5504C133.515 34.7006 133.417 34.8583 133.417 35.0047C133.466 35.335 133.32 35.6429 133.13 35.962C132.987 36.3674 132.744 36.6903 132.505 36.9643C132.266 37.1445 132.168 37.2984 132.168 37.5424C132.217 37.824 132.168 38.0718 132.071 38.3758C131.925 38.7325 131.783 39.0891 131.734 39.4345C131.446 40.6321 130.87 41.6269 130.725 42.8019C130.388 44.4387 129.285 47.7235 131.301 45.3247C131.637 44.6977 131.877 44.1346 132.262 43.5527V43.5452Z" fill="black"></path><path d="M156.943 47.5246C156.894 47.87 156.415 49.09 156.176 49.319C156.03 49.3866 155.985 49.5368 155.888 49.6006C155.697 49.8671 155.551 50.0811 155.36 50.2989C155.263 50.4077 155.121 50.5241 155.072 50.678C154.93 50.9859 154.736 51.1585 154.496 51.335C154.399 51.3951 154.306 51.4589 154.257 51.5602C153.969 51.9394 153.584 52.281 153.296 52.6076C153.008 52.8892 152.72 53.0731 152.383 53.2158C151.953 53.3735 151.568 53.426 151.183 53.625C150.846 53.8164 150.461 53.869 150.079 54.0192C149.934 54.0379 149.791 54.0605 149.646 54.0792C149.07 53.9666 148.494 53.9516 148.015 53.6325C147.966 53.5912 147.873 53.5574 147.776 53.5199C147.345 53.3885 146.912 53.2083 146.624 52.8629C146.238 53.1069 145.902 53.3472 145.614 53.6287C145.423 53.7526 145.277 53.869 145.086 54.0379C145.038 54.0454 144.989 54.098 144.989 54.098C144.701 54.5222 144.316 54.6273 143.935 54.8225C143.261 55.1079 142.592 55.2017 141.967 54.9539C141.728 54.8413 141.489 54.7812 141.245 54.7174C139.854 54.3345 139.084 53.381 138.942 51.9056C138.844 51.1473 138.99 50.404 139.327 49.6832C139.663 49.0112 140 48.3355 140.479 47.7386C140.479 47.6898 140.527 47.6334 140.576 47.5809C141.201 46.5297 141.967 45.5086 142.689 44.5401C143.216 43.8869 143.792 43.3275 144.514 42.7907C144.612 42.7306 144.802 42.6555 144.944 42.633C145.232 42.5466 145.52 42.4566 145.857 42.4115C145.906 42.404 145.954 42.4002 145.999 42.3927C146.287 42.4978 146.672 42.4453 147.009 42.4941C147.106 42.5279 147.2 42.5654 147.297 42.5504C147.536 42.5654 147.727 42.5391 147.824 42.7193C147.873 42.7606 147.921 42.7531 147.921 42.7531C148.161 42.7193 148.352 42.9333 148.595 42.8995C148.692 42.8845 148.785 42.9221 148.834 42.9634C149.122 43.2111 149.459 43.4063 149.649 43.7179C149.698 43.8568 149.747 43.9432 149.795 44.0821C149.892 44.5025 149.795 44.8066 149.361 45.1069C148.928 45.3585 148.546 45.7038 148.161 46.0455V46.0943C147.633 46.6987 147.009 47.2655 146.575 47.9525C146.384 48.2191 146.19 48.4406 145.999 48.6583C145.569 49.1989 145.232 49.777 144.847 50.3589C144.705 50.6217 144.511 50.8882 144.368 51.1022C144.271 51.2111 144.226 51.3162 144.178 51.4176C143.89 51.9882 143.699 52.5438 143.602 53.0882C143.553 53.1407 143.602 53.1858 143.602 53.2796C143.699 53.2158 143.748 53.1632 143.792 53.1069C144.271 52.5588 144.799 52.0032 145.374 51.4889C145.662 51.2073 145.902 50.9333 146.096 50.5692C146.194 50.4115 146.336 50.2463 146.482 50.0811C146.77 49.702 147.058 49.3265 147.297 48.9061C147.633 48.3317 147.97 47.7536 148.307 47.1266C148.737 47.0178 149.073 47.0178 149.361 47.3181C149.459 47.4007 149.552 47.4833 149.649 47.5659C149.986 47.9525 150.035 48.4293 150.083 48.9023C150.083 48.9999 150.035 49.0525 149.986 49.1576C149.795 49.6194 149.556 50.1337 149.313 50.5992C149.167 50.9558 149.122 51.3012 149.167 51.6316C149.264 52.0032 149.406 52.4162 149.601 52.7766C149.698 52.908 149.84 52.983 150.031 52.9568C150.367 52.8629 150.704 52.7691 151.041 52.5776C151.329 52.3936 151.665 52.2022 151.953 51.9694C152.29 51.7292 152.626 51.4889 153.008 51.1961C153.247 50.922 153.535 50.6893 153.775 50.4152C154.399 49.702 155.357 47.9788 155.981 47.2655C156.03 47.213 156.079 47.2055 156.127 47.1492C156.464 47.1492 156.703 47.3106 156.943 47.5171V47.5246Z" fill="black"></path><path d="M176.335 45.2571C176.671 44.7766 176.959 44.3036 177.296 43.7254C177.393 43.5678 177.487 43.4101 177.584 43.2036L177.633 43.1511V43.3425C177.487 43.9882 178.306 43.7292 177.872 44.465C177.681 44.7315 177.008 45.6438 176.911 45.9479C176.862 46.2932 176.095 47.0253 175.856 47.3481C175.665 47.6147 175.519 47.9263 175.377 48.2829C175.089 48.7071 174.85 49.0788 174.513 49.5105C174.225 49.8409 174.035 50.205 173.84 50.5203C173.698 50.877 173.455 51.2486 173.167 51.579C172.494 52.4912 172.445 52.6414 171.727 53.5612C171.39 53.9441 170.717 55.4345 170.336 55.7798C170.145 55.9976 169.902 56.2754 169.76 56.5832C169.423 56.9661 165.825 59.0572 165.537 59.2899C165.395 59.4551 165.346 59.5565 165.249 59.6203C164.819 59.9206 164.527 60.3486 164.434 60.8441C164.049 61.8615 163.521 62.8526 162.994 63.8399C162.609 64.4218 162.321 64.9924 162.033 65.563C161.793 66.2237 161.457 66.7043 160.978 67.2035C160.593 67.7404 160.017 68.1571 159.635 68.7878C158.771 69.6813 158.005 70.3157 156.995 70.9389C156.273 71.4232 155.076 71.5433 154.306 71.6522C151.523 72.6658 147.779 70.8263 147.203 68.2096C147.155 67.7817 147.54 67.1022 148.019 66.937C148.546 66.7193 149.122 66.5428 149.604 66.3776C151.332 65.9422 153.109 65.1688 154.885 64.1477C156.086 63.5471 157.047 63.0778 158.341 62.2707C158.726 62.0229 159.302 61.4147 159.542 60.9455C159.878 60.1759 160.885 57.8183 161.27 57.09C164.774 49.9535 163.574 53.0093 159.445 54.9352C158.869 54.9201 157.283 54.1768 156.95 53.6926C156.613 53.1595 154.309 50.3477 154.549 49.5931C154.788 48.6921 154.885 49.1126 154.837 47.8662C154.983 46.4472 155.413 45.7639 155.701 44.0821C155.798 43.6353 156.325 42.5504 156.325 41.9723C156.711 41.1952 157.092 39.457 157.575 38.8113C157.863 38.1919 158.102 37.7264 158.487 37.1407C158.633 36.9268 158.726 36.7691 159.014 36.4875C159.157 36.5626 159.351 36.6827 159.493 36.7578C159.733 37.1558 160.742 37.595 161.27 37.8578C161.412 37.9817 161.558 38.1056 161.7 38.2782C161.797 38.4096 161.842 38.5485 161.891 38.5898C162.564 38.9765 162.803 39.6673 162.9 40.3768C163.043 40.9324 162.949 41.3829 162.758 41.9385C162.519 42.3101 162.373 42.8132 162.04 43.3388C161.801 43.9507 161.416 44.679 161.079 45.351C160.84 46.0117 160.312 46.6611 159.927 47.3894C159.736 47.656 159.59 48.0126 159.302 48.4406C153.591 57.9572 166.023 45.6738 167.127 43.7855C167.845 42.5767 167.366 43.2224 167.991 41.9798C168.421 41.4842 168.757 40.9099 169.143 40.3242C169.288 40.0164 169.382 39.7611 169.621 39.5847C169.861 39.2618 169.958 39.2506 170.197 39.3106C170.582 39.4495 171.158 40.6208 170.915 41.3303C170.915 41.5218 170.818 41.7771 170.627 41.9497C170.53 42.1562 170.003 43.1924 169.954 43.4401C169.954 43.9206 169.715 44.2923 169.569 44.6977C169.378 45.1107 168.368 47.4195 168.08 48.6621C167.89 49.4579 166.255 53.9741 166.162 54.6649C166.113 57.0825 172.352 50.19 173.747 48.5983C174.708 47.4533 175.523 46.3758 176.338 45.2496L176.335 45.2571ZM156.176 67.868C158.05 65.7282 159.392 63.9525 154.545 66.4565C153.442 66.8995 152.338 67.2448 151.235 67.594C150.85 67.6953 150.562 67.7854 150.225 67.9281C148.258 70.128 153.778 71.6709 156.176 67.868Z" fill="black"></path></svg>