<svg xmlns="http://www.w3.org/2000/svg" width="210" height="110" viewBox="0 0 210 110" fill="none"><path d="M97.3557 43.4255L92.3804 40.5502C91.8481 41.5112 91.0613 42.2646 90.02 42.8182C88.9709 43.3717 87.8139 43.6485 86.5411 43.6485C84.3041 43.6485 82.5223 42.9642 81.1878 41.5958C79.8533 40.2274 79.1899 38.4207 79.1899 36.1681C79.1899 33.9156 79.8533 32.1089 81.1878 30.7405C82.5223 29.372 84.3041 28.6878 86.5411 28.6878C87.8139 28.6878 88.9709 28.9569 90.0046 29.495C91.0382 30.0332 91.8327 30.7943 92.3881 31.7783L97.3634 28.9031C96.2604 27.1041 94.7408 25.6895 92.8201 24.644C90.8993 23.5984 88.8012 23.0833 86.5488 23.0833C82.7768 23.0833 79.645 24.3365 77.1535 26.8427C74.662 29.349 73.4201 32.4549 73.4201 36.1681C73.4201 39.8814 74.662 42.995 77.1535 45.4936C79.645 47.9921 82.7768 49.2453 86.5488 49.2453C88.8321 49.2453 90.9379 48.7225 92.8586 47.6846C94.7716 46.6391 96.2758 45.2245 97.3557 43.4255Z" fill="black"></path><path d="M105.833 38.7513H114.843V33.2929H105.833V29.1183H115.745V23.583H100.063V48.7456H115.93V43.2103H105.833V38.7513Z" fill="black"></path><path d="M124.925 44.794H134.636L135.986 48.7456H141.887L133.294 23.583H125.935L117.35 48.7456H123.659L124.925 44.794ZM129.63 30.1639L132.792 39.3971H126.676L129.63 30.1639Z" fill="black"></path><path d="M149.824 35.0841L159.559 48.7456H163.886V23.583H158.117V37.2444L148.382 23.583H144.055V48.7456H149.824V35.0841Z" fill="black"></path><path d="M54.9149 53.4813H49.6541V76.4374H54.9149V53.4813Z" fill="black"></path><path d="M85.8469 64.9593C85.8469 61.6997 84.7747 58.9781 82.638 56.7794C80.5013 54.5807 77.84 53.4813 74.662 53.4813H65.4518V76.4374H74.662C77.84 76.4374 80.5013 75.338 82.638 73.1393C84.7747 70.9405 85.8469 68.2113 85.8469 64.9593ZM79.0819 69.6259C77.9557 70.7945 76.4747 71.3787 74.6543 71.3787H70.7049V58.5323H74.6543C76.4747 58.5323 77.948 59.1165 79.0819 60.2851C80.2081 61.4537 80.779 63.0143 80.779 64.9593C80.779 66.9044 80.2159 68.4573 79.0819 69.6259Z" fill="black"></path><path d="M109.867 71.3864H100.649V67.3195H108.88V62.3301H100.649V58.5323H109.698V53.4813H95.3887V76.4374H109.867V71.3864Z" fill="black"></path><path d="M132.283 53.4813H125.572L117.743 76.4374H123.497L124.647 72.8318H133.51L134.744 76.4374H140.128L132.283 53.4813ZM126.251 67.9115L128.951 59.4856L131.836 67.9115H126.251Z" fill="black"></path><path d="M153.897 58.6476C154.321 58.3093 154.931 58.1402 155.725 58.1402C156.736 58.1402 157.546 58.3631 158.163 58.809C158.78 59.2549 159.289 59.9161 159.706 60.7925L164.149 58.2017C163.316 56.518 162.174 55.2341 160.724 54.35C159.274 53.4659 157.607 53.02 155.725 53.02C153.619 53.02 151.807 53.6504 150.279 54.9189C148.752 56.1874 147.996 57.8788 147.996 60.0006C147.996 61.0539 148.181 61.9764 148.536 62.7914C148.899 63.5986 149.423 64.2751 150.117 64.8056C150.812 65.3437 151.514 65.7743 152.239 66.0972C152.964 66.42 153.805 66.7199 154.769 66.9813C156.612 67.4887 157.87 67.9269 158.533 68.3113C159.204 68.6957 159.536 69.2261 159.536 69.9027C159.536 71.1481 158.495 71.7708 156.412 71.7708C154.105 71.7708 152.493 70.7099 151.575 68.588L147.032 71.2096C147.688 72.9548 148.806 74.3386 150.372 75.3611C151.938 76.3759 153.897 76.8833 156.242 76.8833C158.788 76.8833 160.847 76.2529 162.429 74.9997C164.01 73.7466 164.797 72.0245 164.797 69.8335C164.797 68.8955 164.635 68.0576 164.318 67.3272C164.002 66.5969 163.64 66.0049 163.231 65.559C162.822 65.1131 162.236 64.6826 161.457 64.2828C160.678 63.8753 160.037 63.5909 159.528 63.4141C159.027 63.2373 158.309 63.0066 157.392 62.7222C155.702 62.2224 154.591 61.7612 154.051 61.346C153.512 60.9309 153.249 60.4389 153.249 59.8699C153.257 59.3933 153.473 58.9858 153.897 58.6476Z" fill="black"></path><path d="M52.6625 85.7551H54.2515C54.0278 86.3625 53.5187 86.67 52.7319 86.67C52.1688 86.67 51.7137 86.5085 51.3743 86.1857C51.0349 85.8628 50.8652 85.4399 50.8652 84.9248C50.8652 84.4097 51.0272 83.9792 51.3589 83.6486C51.6906 83.3181 52.1071 83.1489 52.6085 83.1489C52.9325 83.1489 53.2179 83.2104 53.4801 83.3411C53.7424 83.4718 53.9275 83.6333 54.0587 83.8408L55.2157 83.1797C54.9612 82.7722 54.6063 82.4493 54.1435 82.1956C53.6807 81.9496 53.1716 81.8266 52.6239 81.8266C51.7523 81.8266 51.0195 82.1264 50.4101 82.7261C49.8084 83.3258 49.5076 84.0561 49.5076 84.9171C49.5076 85.7782 49.8084 86.5085 50.4178 87.1005C51.0272 87.6925 51.7908 87.9923 52.7165 87.9923C53.565 87.9923 54.2669 87.7309 54.8146 87.2005C55.3623 86.67 55.64 85.9704 55.64 85.0786V84.5712H52.6625V85.7551Z" fill="black"></path><path d="M63.0606 84.9787C63.2611 84.6711 63.3614 84.3406 63.3614 83.9792C63.3614 83.418 63.1609 82.9337 62.7675 82.5416C62.3741 82.1495 61.8881 81.9496 61.325 81.9496H58.9492V87.8693H60.3068V85.9243H60.947L62.0655 87.8693H63.5234L62.2583 85.6936C62.59 85.5245 62.86 85.2862 63.0606 84.9787ZM61.8032 84.5174C61.6721 84.6634 61.5101 84.7403 61.325 84.7403H60.3068V83.2181H61.325C61.5101 83.2181 61.6721 83.2873 61.8032 83.4411C61.9344 83.5871 62.0038 83.764 62.0038 83.9792C62.0038 84.1945 61.9344 84.3713 61.8032 84.5174Z" fill="black"></path><path d="M68.221 81.9496L66.2001 87.8693H67.6811L67.9819 86.9391H70.2652L70.5814 87.8693H71.9699L69.9489 81.9496H68.221ZM68.3907 85.6706L69.085 83.4949L69.8255 85.6706H68.3907Z" fill="black"></path><path d="M77.2769 81.9496H75.0245V87.8693H76.3821V86.0088H77.2769C77.8555 86.0088 78.3491 85.8089 78.7503 85.4169C79.1514 85.0248 79.3519 84.5404 79.3519 83.9792C79.3519 83.418 79.1514 82.9337 78.7503 82.5416C78.3491 82.1418 77.8555 81.9496 77.2769 81.9496ZM77.7938 84.5174C77.6549 84.6634 77.4852 84.7403 77.2769 84.7403H76.3821V83.2181H77.2769C77.4852 83.2181 77.6626 83.2873 77.7938 83.4411C77.9326 83.5871 77.9943 83.764 77.9943 83.9792C77.9943 84.1945 77.9326 84.3713 77.7938 84.5174Z" fill="black"></path><path d="M85.8006 84.2099H83.9339V81.9496H82.5763V87.8693H83.9339V85.5168H85.8006V87.8693H87.1582V81.9496H85.8006V84.2099Z" fill="black"></path><path d="M92.0795 81.9496H90.7219V87.8693H92.0795V81.9496Z" fill="black"></path><path d="M98.4819 83.1489C98.7827 83.1489 99.0527 83.2104 99.2996 83.3411C99.5464 83.4718 99.7315 83.6486 99.8627 83.8793L101.035 83.2027C100.773 82.7799 100.418 82.4493 99.963 82.2033C99.5078 81.9573 99.0219 81.8343 98.4896 81.8343C97.6026 81.8343 96.862 82.1264 96.2758 82.7184C95.6896 83.3104 95.3964 84.0407 95.3964 84.9095C95.3964 85.7782 95.6896 86.5162 96.2758 87.1005C96.862 87.6925 97.5948 87.9846 98.4896 87.9846C99.0296 87.9846 99.5233 87.8616 99.9707 87.6156C100.426 87.3696 100.773 87.039 101.035 86.6162L99.8627 85.9396C99.7393 86.1626 99.5541 86.3394 99.3073 86.4701C99.0604 86.6008 98.7905 86.6623 98.4896 86.6623C97.9651 86.6623 97.5408 86.5009 97.2323 86.178C96.916 85.8551 96.7618 85.4322 96.7618 84.9018C96.7618 84.3713 96.916 83.9485 97.2323 83.6256C97.5331 83.3104 97.9574 83.1489 98.4819 83.1489Z" fill="black"></path><path d="M111.333 81.9496H108.957V87.8693H111.333C112.151 87.8693 112.837 87.5848 113.393 87.0159C113.948 86.447 114.218 85.7474 114.218 84.9095C114.218 84.0715 113.94 83.3642 113.393 82.7953C112.837 82.2341 112.151 81.9496 111.333 81.9496ZM112.475 86.1088C112.181 86.4086 111.803 86.5624 111.333 86.5624H110.315V83.2489H111.333C111.803 83.2489 112.181 83.4026 112.475 83.7025C112.768 84.0023 112.914 84.4097 112.914 84.9095C112.914 85.4092 112.768 85.8089 112.475 86.1088Z" fill="black"></path><path d="M118.885 85.5168H121.006V84.2329H118.885V83.2489H121.222V81.9496H117.527V87.8693H121.26V86.5624H118.885V85.5168Z" fill="black"></path><path d="M128.45 85.0632C128.342 84.9479 128.195 84.8403 127.995 84.7326C127.794 84.625 127.632 84.5558 127.501 84.5097C127.37 84.4636 127.185 84.4021 126.953 84.3329C126.514 84.2022 126.228 84.0869 126.089 83.9792C125.95 83.8716 125.881 83.7486 125.881 83.5948C125.881 83.4718 125.935 83.3642 126.043 83.2796C126.151 83.1951 126.313 83.1489 126.514 83.1489C126.776 83.1489 126.984 83.2104 127.138 83.3258C127.293 83.4411 127.431 83.6102 127.539 83.8408L128.689 83.172C128.473 82.7415 128.18 82.4032 127.809 82.1803C127.439 81.9496 127.007 81.8343 126.521 81.8343C125.981 81.8343 125.511 81.9957 125.117 82.3263C124.724 82.6492 124.531 83.0874 124.531 83.641C124.531 83.91 124.577 84.1484 124.67 84.3559C124.763 84.5635 124.901 84.7403 125.079 84.8787C125.256 85.0171 125.441 85.1247 125.626 85.2093C125.812 85.2939 126.028 85.3707 126.282 85.4399C126.76 85.5706 127.084 85.6859 127.254 85.7859C127.424 85.8858 127.516 86.0242 127.516 86.1933C127.516 86.5162 127.246 86.6777 126.714 86.6777C126.12 86.6777 125.704 86.4009 125.464 85.8551L124.292 86.5316C124.462 86.9852 124.747 87.3388 125.156 87.6002C125.565 87.8616 126.066 87.9923 126.668 87.9923C127.323 87.9923 127.856 87.8309 128.265 87.508C128.673 87.1851 128.874 86.7392 128.874 86.178C128.874 85.9319 128.835 85.7167 128.751 85.5322C128.65 85.3323 128.558 85.1785 128.45 85.0632Z" fill="black"></path><path d="M133.394 81.9496H132.037V87.8693H133.394V81.9496Z" fill="black"></path><path d="M139.858 85.7551H141.447C141.224 86.3625 140.714 86.67 139.928 86.67C139.365 86.67 138.909 86.5085 138.57 86.1857C138.231 85.8628 138.061 85.4399 138.061 84.9325C138.061 84.4174 138.223 83.9869 138.555 83.6563C138.886 83.3258 139.303 83.1566 139.804 83.1566C140.128 83.1566 140.414 83.2181 140.676 83.3488C140.938 83.4795 141.123 83.641 141.254 83.8485L142.411 83.1874C142.157 82.7799 141.802 82.457 141.339 82.2033C140.876 81.9573 140.367 81.8343 139.82 81.8343C138.948 81.8343 138.215 82.1341 137.606 82.7338C137.004 83.3334 136.703 84.0638 136.703 84.9248C136.703 85.7859 137.004 86.5162 137.614 87.1082C138.223 87.7002 138.987 88 139.912 88C140.761 88 141.463 87.7386 142.01 87.2081C142.558 86.6777 142.836 85.9781 142.836 85.0863V84.5789H139.858V85.7551Z" fill="black"></path><path d="M149.454 85.1632L147.163 81.9496H146.145V87.8693H147.503V84.6558L149.793 87.8693H150.812V81.9496H149.454V85.1632Z" fill="black"></path><path d="M155.733 85.5168H157.854V84.2329H155.733V83.2489H158.07V81.9496H154.375V87.8693H158.109V86.5624H155.733V85.5168Z" fill="black"></path><path d="M164.743 85.6936C165.067 85.5245 165.337 85.2862 165.537 84.9787C165.738 84.6711 165.838 84.3406 165.838 83.9792C165.838 83.418 165.637 82.9337 165.244 82.5416C164.851 82.1495 164.365 81.9496 163.802 81.9496H161.426V87.8693H162.783V85.9243H163.424L164.542 87.8693H166L164.743 85.6936ZM164.28 84.5174C164.149 84.6634 163.987 84.7403 163.802 84.7403H162.783V83.2181H163.802C163.987 83.2181 164.149 83.2873 164.28 83.4411C164.411 83.5871 164.48 83.764 164.48 83.9792C164.473 84.1945 164.411 84.3713 164.28 84.5174Z" fill="black"></path><path d="M70.6123 33.3082C69.2701 25.751 60.677 21.5073 53.5881 23.4831C49.361 24.6593 45.859 28.0805 44.4628 32.2089C44.9334 31.8629 50.4487 27.4885 55.1694 32.6394C59.7514 37.6442 62.3741 40.7501 66.8249 39.5278C69.7406 38.7359 71.1214 36.2143 70.6123 33.3082Z" fill="black"></path><path d="M56.9745 39.62C56.9899 39.4355 57.013 39.2433 57.0362 39.0588C57.0439 38.9819 57.0516 38.905 57.067 38.8358C57.0979 38.6436 57.1442 38.4591 57.1904 38.2669C57.2059 38.1977 57.2213 38.1286 57.2367 38.0594C57.2907 37.8672 57.3447 37.675 57.4141 37.4828C57.4373 37.4213 57.4527 37.3598 57.4681 37.2983C57.553 37.0446 57.6533 36.7985 57.7535 36.5602C56.7276 35.6069 55.6554 34.4537 54.5061 33.1314C54.3055 32.9008 54.0972 32.6932 53.889 32.501C52.7165 31.4324 51.4514 30.9865 50.225 30.9173C47.7026 30.7789 45.3422 32.2012 44.3163 32.9315C44.3008 33.0084 44.2777 33.0776 44.2623 33.1545C44.2468 33.2314 44.2391 33.3005 44.2237 33.3774C44.1928 33.5619 44.162 33.7541 44.1311 33.9386C44.1157 34.0309 44.108 34.1155 44.1003 34.2077C44.0771 34.3922 44.0617 34.5767 44.0463 34.7689C44.0386 34.8535 44.0309 34.9304 44.0309 35.015C44.0077 35.2763 44 35.5454 44 35.8145C44 36.1681 44.0154 36.5141 44.0463 36.86H44.054C44.594 43.9252 50.5027 49.499 57.7304 49.499C59.7437 49.499 61.649 49.0608 63.3691 48.292C58.2241 45.7319 56.7585 42.5875 56.9745 39.62Z" fill="black"></path></svg>